<?xml version="1.0" encoding="utf-8"?>
<!-- Generator: Adobe Illustrator 26.3.1, SVG Export Plug-In . SVG Version: 6.00 Build 0)  -->
<svg version="1.1" id="Layer_1" xmlns="http://www.w3.org/2000/svg" xmlns:xlink="http://www.w3.org/1999/xlink" x="0px" y="0px"
	 viewBox="0 0 1823 597" style="enable-background:new 0 0 1823 597;" xml:space="preserve">
<style type="text/css">
	.st0{fill:#231F20;}
</style>
<g>
	<path class="st0" d="M180.7,216.7h36.9v91c0,46.1-26.1,65.6-69.8,65.6c-45.4,0-70.5-20.2-70.5-65.6v-91h37.2v93.1
		c0,23.3,12.5,34,33.1,34s33.1-10.7,33.1-34V216.7z"/>
	<path class="st0" d="M340.2,258.5c-7.5-11.2-17.5-18-34.2-18c-18.6,0-26.1,7-26.1,16.9c0,8.4,4.3,14.9,22.7,19.1l15.8,3.5
		c36.1,7.9,50.6,22.8,50.6,46.1c0,29.6-23.1,47.2-64.4,47.2c-26.8,0-50.6-6.8-64.4-29.6l24.2-17.4c9.1,14.3,22,21.8,40.1,21.8
		c19.9,0,29.4-6.1,29.4-18.2c0-8.8-5.2-14.3-23.6-18.4l-15.6-3.5c-35.3-7.9-48.7-25.4-48.7-48c0-26.4,22-46.3,59.6-46.3
		c27.4,0,47.8,7.7,59.8,28.7L340.2,258.5z"/>
	<path class="st0" d="M516.5,216.7v30.2h-48.5v123.3h-37.2V246.9h-48.5v-30.2L516.5,216.7L516.5,216.7z"/>
	<path class="st0" d="M681.8,247.8c-9.1-15.8-21.2-23.5-43.7-23.5c-28.1,0-40.1,12.1-40.1,29.6c0,15.1,10,24.8,35.1,30.5l14.3,3.3
		c35.3,8.1,48.9,19.7,48.9,42.1c0,27-20.1,42.8-56.9,42.8c-27.4,0-46.9-8.1-60.1-28.9l10.4-6.5c12.1,18.2,25.3,25.2,49.3,25.2
		c31.1,0,44.4-12.1,44.4-31.6c0-15.3-8.2-23.5-38.1-30.7l-14.7-3.5c-29.9-7.3-45.6-19.7-45.6-42.1c0-23.9,18.1-40.1,53-40.1
		c27.9,0,43.3,9,54.1,27.2L681.8,247.8z"/>
	<path class="st0" d="M732.4,264.5h11.1l1.3,23.5c7.5-18,23.1-25.8,39.6-25.8c19.9,0,31.3,11.2,34.2,28.9
		c6.8-19.9,23.1-28.9,42.1-28.9c24,0,36.1,13.6,36.1,40.8v67.3h-12.7v-64.1c0-24.8-10.2-33.6-27-33.6c-21.2,0-35.1,15.1-36.3,41.1
		v56.6h-12.7v-63.6c0-25-10.6-34-27.7-34c-20.8,0-34.2,15.1-35.6,41.9v55.8h-12.7L732.4,264.5L732.4,264.5z"/>
	<path class="st0" d="M969.3,372.6c-22.7,0-37.8-11.4-37.8-31.6c0-21,15.2-34.2,47.6-34.2h32.4c0.2-26.8-10.6-34.6-32.9-34.6
		c-17.9,0-27.9,5.7-34.6,14.7l-7.3-7.5c8.2-11.6,22.7-17.4,42.8-17.4c28.5,0,44.6,10.9,44.6,42.6v65.5h-10.9l-1.1-23.3
		C1005.2,363,990.4,372.6,969.3,372.6z M1011.5,321.6v-4.8h-32c-23.8,0-35.6,7.3-35.6,23.9c0,14,9.5,22,28.3,22
		C995.9,362.5,1010.1,347.2,1011.5,321.6z"/>
	<path class="st0" d="M1067.2,264.5h11.1l1.1,26.4c7.3-18.7,22.9-28.3,41.9-27.4v11.6c-25.1-1.5-39.8,13.6-41.5,41.9v53.2h-12.7
		V264.5z"/>
	<path class="st0" d="M1157.8,264.5v-32.1h12.5v32.1h35.1v9.7h-35.1V334c0,23.3,8.8,27.9,22,27.9c6.1,0,9.7-0.9,14.5-2.5l2,10.1
		c-8,2.7-12.3,3.1-18.6,3.1c-19.9,0-32.4-10.5-32.4-36.5v-62h-20.6v-9.7H1157.8z"/>
	<path class="st0" d="M1299.4,214.2c46.5,0,69.6,22.4,69.6,79.2c0,56.6-24.2,79.2-69.6,79.2c-45.6,0-69.1-22.6-69.1-79.2
		C1230.3,236.6,1254.3,214.2,1299.4,214.2z M1299.4,362.1c35.8,0,56.4-16.4,56.4-68.9c0-51.8-20.6-68.4-56.4-68.4
		c-35.6,0-56,16-56,68.7C1243.5,345.3,1263.8,362.1,1299.4,362.1z"/>
	<path class="st0" d="M1419.9,264.5l1.1,23.3c7.3-17.2,22.9-25.6,43-25.6c29.7,0,45.6,19.3,45.6,55.1c0,35.6-17.5,55.5-48.7,55.5
		c-17.5,0-31.7-7-39.4-22v60.4h-12.7V264.5H1419.9z M1459.4,362.5c25.1,0,37.6-15.8,37.6-45.5c0-29.8-12.3-45-36.1-45
		c-22.7,0-39.4,14.3-39.4,45.9C1421.6,348.9,1437.6,362.5,1459.4,362.5z"/>
	<path class="st0" d="M1610.7,343.7c0-11.2-6.3-16-25.8-20.2l-10.2-2.1c-23.8-5-34.6-13.8-34.6-28.9c0-17.4,12.5-30.2,39.8-30.2
		c17.7,0,29.4,4.8,38.9,16.7l-8.4,7.5c-8.4-10.3-17-14.5-31.3-14.5c-18.6,0-27.2,7.7-27.2,19.3c0,9.4,5.6,14.9,24.2,19.1l11.5,2.7
		c27.9,5.9,34.9,15.8,34.9,29.4c0,16.4-10.6,30.5-42.1,30.5c-20.4,0-35.3-5.5-46-20.4l9.3-6.8c8.8,12.5,19.7,17.8,37.2,17.8
		C1602.6,363.2,1610.7,354.7,1610.7,343.7z"/>
	<path class="st0" d="M1681.3,220.2v3.7h-18.6v48.7h-4.4v-48.7h-18.6v-3.7H1681.3z"/>
	<path class="st0" d="M1695.4,227.5l0.1,45.2h-4.3v-52.4h4.9l22.4,47.4l22.4-47.4h4.9v52.4h-4.3l0.2-45.2l-21.5,45.2h-3.6
		L1695.4,227.5z"/>
</g>
</svg>
